<svg xmlns="http://www.w3.org/2000/svg" width="256" height="340" viewBox="0 0 256 340"><defs><linearGradient id="shirt" x1="0" y1="0" x2="1" y2="1"><stop stop-color="#8cddff"/><stop offset=".38" stop-color="#2588e8"/><stop offset="1" stop-color="#123d9b"/></linearGradient><linearGradient id="skin" x2=".8" y2="1"><stop stop-color="#ffe4b8"/><stop offset=".6" stop-color="#f2b982"/><stop offset="1" stop-color="#c9845d"/></linearGradient><linearGradient id="hat" x2="1" y2="1"><stop stop-color="#48c6ff"/><stop offset="1" stop-color="#1151bd"/></linearGradient><filter id="shadow"><feGaussianBlur stdDeviation="3"/></filter></defs><ellipse cx="123" cy="327" rx="83" ry="10" fill="#101d34" opacity=".4"/><g stroke="#152b4d" stroke-width="5" stroke-linejoin="round"><path d="M77 233 65 302 108 307 129 251Z" fill="#224a88"/><path d="M143 241 145 304 190 305 179 226Z" fill="#173f7b"/><path d="M62 293Q48 295 44 314Q48 330 111 327L114 305Z" fill="#2b3046"/><path d="M143 302 192 294Q215 305 213 324L143 328Z" fill="#2b3046"/><path d="M66 313h43m43 2h50" stroke="#789bb6" stroke-width="3"/></g><path d="M64 150Q44 170 46 222Q59 251 95 265L163 265Q203 244 201 212L190 151Q129 127 64 150Z" fill="url(#shirt)" stroke="#104078" stroke-width="7"/><path d="M68 168Q127 185 188 164" fill="none" stroke="#a1ecff" stroke-width="8" opacity=".6"/><path d="m127 188 11 24 27 4-19 19 5 28-24-14-25 14 5-28-19-19 28-4Z" fill="#ffe058" stroke="#ac6c1c" stroke-width="3"/><path d="M58 168Q30 180 22 216L34 237 62 226 81 187Z" fill="url(#skin)" stroke="#a96b4d" stroke-width="5"/><path d="M184 171Q204 169 214 190L230 202 218 225 184 217 166 190Z" fill="url(#skin)" stroke="#a96b4d" stroke-width="5"/><path d="M198 197 235 187 249 200 237 219 208 220Z" fill="#344b5a" stroke="#172b38" stroke-width="5"/><path d="M218 188h29v12h-29Z" fill="#516878"/><path d="M245 188h10v8h-10Z" fill="#f2c663"/><path d="M61 155Q42 129 49 90Q56 42 119 34Q192 35 203 99Q207 145 177 165Q131 190 85 169Z" fill="url(#skin)" stroke="#b97755" stroke-width="6"/><path d="M55 92Q42 34 106 18Q177 2 203 66L196 95Q168 75 133 77Q89 77 55 92Z" fill="#3c241d"/><path d="M63 70Q75 28 120 22Q178 17 195 60" fill="none" stroke="#885136" stroke-width="11"/><path d="M53 78Q42 37 79 22Q131 0 190 31L201 75Q143 61 53 78Z" fill="url(#hat)" stroke="#123f88" stroke-width="6"/><path d="M53 73Q131 57 201 74L214 89Q127 85 49 99Z" fill="#1264c8" stroke="#0c428d" stroke-width="5"/><path d="M65 78Q131 66 186 79" stroke="#8be4ff" stroke-width="5" fill="none"/><path d="M83 114Q102 102 119 114M147 112Q167 100 181 112" stroke="#5c352e" stroke-width="6" fill="none" stroke-linecap="round"/><ellipse cx="103" cy="127" rx="8" ry="11" fill="#24354a"/><ellipse cx="165" cy="126" rx="8" ry="11" fill="#24354a"/><circle cx="105" cy="123" r="3" fill="white"/><circle cx="167" cy="122" r="3" fill="white"/><path d="M137 127q-7 17 4 20" stroke="#c18161" stroke-width="4" fill="none"/><path d="M112 155Q135 167 156 150" stroke="#9c574b" stroke-width="5" fill="none" stroke-linecap="round"/><path d="M69 179 90 172M170 174l20 8" stroke="#c7f5ff" stroke-width="6" opacity=".5"/></svg>