<svg xmlns="http://www.w3.org/2000/svg" viewBox="0 0 960 540"><defs><linearGradient id="bg" x2="1" y2="1"><stop stop-color="#152b72"/><stop offset=".55" stop-color="#422e85"/><stop offset="1" stop-color="#e77847"/></linearGradient><radialGradient id="fire"><stop stop-color="#fff9a1"/><stop offset=".45" stop-color="#ffbd40"/><stop offset="1" stop-color="#f45145"/></radialGradient><linearGradient id="stone" x2="0" y2="1"><stop stop-color="#9baef7"/><stop offset="1" stop-color="#354b9e"/></linearGradient></defs><rect width="960" height="540" fill="url(#bg)"/><circle cx="770" cy="130" r="150" fill="#ffb86b" opacity=".16"/><path d="M0 310 180 210 360 305 550 185 760 275 960 165V540H0" fill="#142b69" opacity=".65"/><path d="M0 400 480 265 960 400 960 540H0" fill="#246c69"/><path d="M0 455 480 310 960 455M0 515 480 370 960 515M180 540 480 310 780 540M-30 540 480 310 990 540" fill="none" stroke="#68b99d" stroke-width="9" opacity=".6"/><g transform="translate(105 220)"><rect x="0" y="50" width="165" height="145" rx="20" fill="#27346d"/><rect x="10" y="20" width="165" height="145" rx="18" fill="url(#stone)"/><path d="M20 80H165M90 25V80M20 140H165M80 80V140" stroke="#b5c6ff" stroke-width="8" opacity=".55"/></g><g transform="translate(665 265)"><rect width="190" height="145" rx="17" fill="#875032"/><rect x="10" y="10" width="170" height="125" rx="12" fill="#d18a49"/><path d="M10 66H180M92 10V135" stroke="#83502e" stroke-width="19"/><circle cx="92" cy="66" r="15" fill="#ffe09b"/></g><g transform="translate(490 235)"><circle cx="100" cy="125" r="100" fill="url(#fire)" opacity=".8"/><path d="M100 0 125 62 194 38 166 102 222 146 151 150 131 218 95 164 39 210 48 144-22 114 51 96 39 25 89 66Z" fill="url(#fire)"/><circle cx="100" cy="115" r="46" fill="#fff2a4"/></g><g transform="translate(305 220)"><ellipse cx="120" cy="278" rx="105" ry="30" fill="#081c42" opacity=".45"/><rect x="56" y="177" width="124" height="104" rx="42" fill="#216fcd"/><rect x="51" y="248" width="48" height="43" rx="18" fill="#12295e"/><rect x="140" y="248" width="48" height="43" rx="18" fill="#12295e"/><circle cx="120" cy="123" r="96" fill="#f9bf91"/><path d="M25 121Q8 20 117 10Q225 8 216 122L197 99Q122 120 39 97Z" fill="#145bb9"/><path d="M15 107Q121 80 223 107L219 130Q120 115 20 133Z" fill="#34b4f2"/><circle cx="85" cy="139" r="10" fill="#25304a"/><circle cx="152" cy="139" r="10" fill="#25304a"/><path d="M102 177Q120 191 140 175" fill="none" stroke="#b55e57" stroke-width="6" stroke-linecap="round"/><path d="M180 194 235 224" stroke="#f9bf91" stroke-width="26" stroke-linecap="round"/><circle cx="248" cy="236" r="40" fill="#151b31"/><ellipse cx="234" cy="220" rx="11" ry="7" fill="#a3b6d1"/><path d="M252 199 260 174" stroke="#f7c468" stroke-width="9" stroke-linecap="round"/><path d="m260 172 8-16" stroke="#ffdc69" stroke-width="6"/></g><g fill="#ffeaa2" opacity=".8"><circle cx="725" cy="70" r="7"/><circle cx="823" cy="195" r="5"/><circle cx="130" cy="92" r="5"/></g></svg>